<?xml version="1.0" encoding="UTF-8"?>
<svg xmlns="http://www.w3.org/2000/svg" xmlns:xlink="http://www.w3.org/1999/xlink" viewBox="0 0 150 150" width="150px" height="150px">
<g id="surface4659250">
<path style=" stroke:none;fill-rule:nonzero;fill:rgb(0%,0%,0%);fill-opacity:1;" d="M 75 6 C 36.929688 6 6 36.929688 6 75 C 6 87.238281 9.355469 98.65625 14.953125 108.625 L 6.113281 140.191406 C 5.824219 141.21875 6.105469 142.324219 6.847656 143.089844 C 7.589844 143.855469 8.683594 144.167969 9.722656 143.910156 L 42.632812 135.753906 C 52.304688 140.917969 63.277344 144 75 144 C 113.070312 144 144 113.070312 144 75 C 144 36.929688 113.070312 6 75 6 Z M 75 12 C 109.828125 12 138 40.171875 138 75 C 138 109.828125 109.828125 138 75 138 C 63.835938 138 53.375 135.089844 44.285156 130 C 43.621094 129.628906 42.839844 129.527344 42.097656 129.707031 L 13.277344 136.851562 L 21.003906 109.277344 C 21.230469 108.488281 21.121094 107.644531 20.707031 106.9375 C 15.183594 97.570312 12 86.671875 12 75 C 12 40.171875 40.171875 12 75 12 Z M 49.929688 39 C 48.003906 39 45.257812 39.714844 43.003906 42.148438 C 41.648438 43.605469 36 49.109375 36 58.78125 C 36 68.867188 42.996094 77.566406 43.839844 78.6875 L 43.847656 78.6875 L 43.847656 78.691406 C 43.765625 78.585938 44.917969 80.257812 46.460938 82.261719 C 48 84.261719 50.152344 86.894531 52.859375 89.742188 C 58.269531 95.4375 65.875 102.023438 75.316406 106.050781 C 79.664062 107.898438 83.09375 109.019531 85.695312 109.835938 C 90.507812 111.347656 94.894531 111.117188 98.191406 110.632812 C 100.65625 110.269531 103.371094 109.082031 106.054688 107.382812 C 108.738281 105.6875 111.371094 103.574219 112.53125 100.367188 C 113.359375 98.066406 113.78125 95.9375 113.9375 94.191406 C 114.011719 93.316406 114.023438 92.542969 113.964844 91.828125 C 113.90625 91.113281 113.96875 90.566406 113.304688 89.472656 C 111.90625 87.179688 110.324219 87.121094 108.675781 86.304688 C 107.757812 85.847656 105.144531 84.574219 102.527344 83.328125 C 99.910156 82.078125 97.648438 80.976562 96.253906 80.480469 C 95.371094 80.160156 94.292969 79.703125 92.742188 79.882812 C 91.191406 80.058594 89.65625 81.175781 88.765625 82.5 C 87.917969 83.753906 84.511719 87.773438 83.472656 88.957031 C 83.457031 88.949219 83.550781 88.988281 83.140625 88.789062 C 81.855469 88.152344 80.285156 87.609375 77.960938 86.382812 C 75.632812 85.160156 72.726562 83.347656 69.546875 80.542969 L 69.546875 80.535156 C 64.808594 76.367188 61.492188 71.132812 60.445312 69.375 C 60.515625 69.292969 60.4375 69.394531 60.585938 69.246094 L 60.59375 69.238281 C 61.660156 68.1875 62.609375 66.929688 63.410156 66.003906 C 64.546875 64.699219 65.046875 63.542969 65.589844 62.464844 C 66.671875 60.320312 66.070312 57.957031 65.445312 56.710938 L 65.445312 56.707031 C 65.488281 56.792969 65.105469 55.949219 64.695312 54.976562 C 64.28125 54.003906 63.753906 52.738281 63.195312 51.390625 C 62.070312 48.699219 60.816406 45.675781 60.070312 43.902344 L 60.070312 43.898438 C 59.191406 41.8125 58.003906 40.3125 56.449219 39.585938 C 54.894531 38.859375 53.523438 39.066406 53.46875 39.0625 L 53.460938 39.0625 C 52.351562 39.011719 51.136719 39 49.929688 39 Z M 49.929688 45 C 51.085938 45 52.226562 45.015625 53.179688 45.058594 C 54.164062 45.109375 54.101562 45.113281 53.914062 45.023438 C 53.71875 44.933594 53.980469 44.90625 54.539062 46.230469 C 55.269531 47.964844 56.53125 50.996094 57.65625 53.703125 C 58.21875 55.054688 58.746094 56.320312 59.167969 57.316406 C 59.589844 58.3125 59.816406 58.867188 60.082031 59.398438 L 60.082031 59.402344 L 60.089844 59.410156 C 60.347656 59.921875 60.324219 59.59375 60.234375 59.773438 C 59.601562 61.027344 59.515625 61.335938 58.875 62.074219 C 57.898438 63.199219 56.90625 64.449219 56.378906 64.96875 C 55.917969 65.421875 55.085938 66.125 54.570312 67.507812 C 54.046875 68.886719 54.292969 70.785156 55.125 72.199219 C 56.234375 74.082031 59.894531 80.039062 65.578125 85.042969 C 69.160156 88.199219 72.492188 90.289062 75.15625 91.695312 C 77.824219 93.097656 79.992188 93.917969 80.476562 94.160156 C 81.632812 94.730469 82.890625 95.175781 84.355469 95 C 85.824219 94.820312 87.085938 93.933594 87.890625 93.023438 L 87.894531 93.019531 C 88.96875 91.804688 92.148438 88.171875 93.671875 85.933594 C 93.738281 85.957031 93.71875 85.9375 94.222656 86.121094 L 94.222656 86.128906 L 94.230469 86.128906 C 94.460938 86.210938 97.363281 87.507812 99.949219 88.742188 C 102.535156 89.972656 105.160156 91.253906 106.011719 91.675781 C 107.246094 92.285156 107.828125 92.683594 107.976562 92.683594 C 107.988281 92.949219 107.996094 93.234375 107.957031 93.667969 C 107.855469 94.871094 107.53125 96.539062 106.886719 98.328125 C 106.570312 99.199219 104.925781 101.003906 102.847656 102.316406 C 100.773438 103.628906 98.246094 104.558594 97.3125 104.695312 C 94.5 105.109375 91.160156 105.261719 87.492188 104.109375 C 84.949219 103.3125 81.777344 102.277344 77.671875 100.53125 C 69.34375 96.976562 62.265625 90.933594 57.210938 85.613281 C 54.683594 82.949219 52.65625 80.472656 51.214844 78.597656 C 49.777344 76.726562 49.152344 75.753906 48.625 75.066406 L 48.621094 75.058594 C 47.691406 73.828125 42 65.914062 42 58.78125 C 42 51.234375 45.503906 48.273438 47.402344 46.230469 C 48.398438 45.15625 49.488281 45 49.925781 45 Z M 49.929688 45 "/>
</g>
</svg>
